<mxfile host="Electron" modified="2023-11-11T13:12:18.962Z" agent="Mozilla/5.0 (X11; Linux x86_64) AppleWebKit/537.36 (KHTML, like Gecko) draw.io/22.0.3 Chrome/114.0.5735.289 Electron/25.8.4 Safari/537.36" etag="th2WU2efs2Nx8lPTwh9L" version="22.0.3" type="device">
  <diagram name="Page-1" id="2YBvvXClWsGukQMizWep">
    <mxGraphModel dx="1434" dy="839" grid="1" gridSize="10" guides="1" tooltips="1" connect="1" arrows="1" fold="1" page="1" pageScale="1" pageWidth="850" pageHeight="1100" math="0" shadow="0">
      <root>
        <mxCell id="0" />
        <mxCell id="1" parent="0" />
        <mxCell id="_mBnX6t3Rk1k-VsCyOZ5-8" style="edgeStyle=orthogonalEdgeStyle;rounded=0;orthogonalLoop=1;jettySize=auto;html=1;exitX=0.5;exitY=0.5;exitDx=0;exitDy=0;exitPerimeter=0;entryX=0;entryY=0.5;entryDx=0;entryDy=0;" edge="1" parent="1" source="_mBnX6t3Rk1k-VsCyOZ5-1" target="_mBnX6t3Rk1k-VsCyOZ5-2">
          <mxGeometry relative="1" as="geometry" />
        </mxCell>
        <mxCell id="_mBnX6t3Rk1k-VsCyOZ5-9" style="edgeStyle=orthogonalEdgeStyle;rounded=0;orthogonalLoop=1;jettySize=auto;html=1;exitX=0.5;exitY=0.5;exitDx=0;exitDy=0;exitPerimeter=0;entryX=0;entryY=0.5;entryDx=0;entryDy=0;" edge="1" parent="1" source="_mBnX6t3Rk1k-VsCyOZ5-1" target="_mBnX6t3Rk1k-VsCyOZ5-3">
          <mxGeometry relative="1" as="geometry" />
        </mxCell>
        <mxCell id="_mBnX6t3Rk1k-VsCyOZ5-10" style="edgeStyle=orthogonalEdgeStyle;rounded=0;orthogonalLoop=1;jettySize=auto;html=1;exitX=0.5;exitY=0.5;exitDx=0;exitDy=0;exitPerimeter=0;entryX=0;entryY=0.5;entryDx=0;entryDy=0;" edge="1" parent="1" source="_mBnX6t3Rk1k-VsCyOZ5-1" target="_mBnX6t3Rk1k-VsCyOZ5-4">
          <mxGeometry relative="1" as="geometry" />
        </mxCell>
        <mxCell id="_mBnX6t3Rk1k-VsCyOZ5-1" value="Actor" style="shape=umlActor;verticalLabelPosition=bottom;verticalAlign=top;html=1;outlineConnect=0;" vertex="1" parent="1">
          <mxGeometry x="50" y="220" width="40" height="60" as="geometry" />
        </mxCell>
        <mxCell id="_mBnX6t3Rk1k-VsCyOZ5-2" value="Подключение" style="rounded=1;whiteSpace=wrap;html=1;" vertex="1" parent="1">
          <mxGeometry x="240" y="110" width="120" height="60" as="geometry" />
        </mxCell>
        <mxCell id="_mBnX6t3Rk1k-VsCyOZ5-12" value="" style="edgeStyle=orthogonalEdgeStyle;rounded=0;orthogonalLoop=1;jettySize=auto;html=1;" edge="1" parent="1" source="_mBnX6t3Rk1k-VsCyOZ5-3" target="_mBnX6t3Rk1k-VsCyOZ5-11">
          <mxGeometry relative="1" as="geometry" />
        </mxCell>
        <mxCell id="_mBnX6t3Rk1k-VsCyOZ5-15" style="edgeStyle=orthogonalEdgeStyle;rounded=0;orthogonalLoop=1;jettySize=auto;html=1;exitX=1;exitY=0.5;exitDx=0;exitDy=0;entryX=0;entryY=0.5;entryDx=0;entryDy=0;" edge="1" parent="1" source="_mBnX6t3Rk1k-VsCyOZ5-3" target="_mBnX6t3Rk1k-VsCyOZ5-13">
          <mxGeometry relative="1" as="geometry" />
        </mxCell>
        <mxCell id="_mBnX6t3Rk1k-VsCyOZ5-16" style="edgeStyle=orthogonalEdgeStyle;rounded=0;orthogonalLoop=1;jettySize=auto;html=1;exitX=1;exitY=0.5;exitDx=0;exitDy=0;entryX=0;entryY=0.5;entryDx=0;entryDy=0;" edge="1" parent="1" source="_mBnX6t3Rk1k-VsCyOZ5-3" target="_mBnX6t3Rk1k-VsCyOZ5-14">
          <mxGeometry relative="1" as="geometry" />
        </mxCell>
        <mxCell id="_mBnX6t3Rk1k-VsCyOZ5-3" value="Обслуживание" style="rounded=1;whiteSpace=wrap;html=1;" vertex="1" parent="1">
          <mxGeometry x="240" y="330" width="120" height="60" as="geometry" />
        </mxCell>
        <mxCell id="_mBnX6t3Rk1k-VsCyOZ5-19" style="edgeStyle=orthogonalEdgeStyle;rounded=0;orthogonalLoop=1;jettySize=auto;html=1;exitX=1;exitY=0.5;exitDx=0;exitDy=0;entryX=0;entryY=0.5;entryDx=0;entryDy=0;" edge="1" parent="1" source="_mBnX6t3Rk1k-VsCyOZ5-4" target="_mBnX6t3Rk1k-VsCyOZ5-17">
          <mxGeometry relative="1" as="geometry" />
        </mxCell>
        <mxCell id="_mBnX6t3Rk1k-VsCyOZ5-20" style="edgeStyle=orthogonalEdgeStyle;rounded=0;orthogonalLoop=1;jettySize=auto;html=1;exitX=1;exitY=0.5;exitDx=0;exitDy=0;entryX=0;entryY=0.5;entryDx=0;entryDy=0;" edge="1" parent="1" source="_mBnX6t3Rk1k-VsCyOZ5-4" target="_mBnX6t3Rk1k-VsCyOZ5-18">
          <mxGeometry relative="1" as="geometry" />
        </mxCell>
        <mxCell id="_mBnX6t3Rk1k-VsCyOZ5-4" value="Уборка" style="rounded=1;whiteSpace=wrap;html=1;" vertex="1" parent="1">
          <mxGeometry x="240" y="220" width="120" height="60" as="geometry" />
        </mxCell>
        <mxCell id="_mBnX6t3Rk1k-VsCyOZ5-11" value="Настройка" style="whiteSpace=wrap;html=1;rounded=1;" vertex="1" parent="1">
          <mxGeometry x="470" y="330" width="120" height="60" as="geometry" />
        </mxCell>
        <mxCell id="_mBnX6t3Rk1k-VsCyOZ5-13" value="Обновление" style="rounded=1;whiteSpace=wrap;html=1;" vertex="1" parent="1">
          <mxGeometry x="470" y="430" width="120" height="60" as="geometry" />
        </mxCell>
        <mxCell id="_mBnX6t3Rk1k-VsCyOZ5-14" value="Статистика" style="rounded=1;whiteSpace=wrap;html=1;" vertex="1" parent="1">
          <mxGeometry x="470" y="530" width="120" height="60" as="geometry" />
        </mxCell>
        <mxCell id="_mBnX6t3Rk1k-VsCyOZ5-23" style="edgeStyle=orthogonalEdgeStyle;rounded=0;orthogonalLoop=1;jettySize=auto;html=1;exitX=1;exitY=0.5;exitDx=0;exitDy=0;entryX=0;entryY=0.5;entryDx=0;entryDy=0;" edge="1" parent="1" source="_mBnX6t3Rk1k-VsCyOZ5-17" target="_mBnX6t3Rk1k-VsCyOZ5-21">
          <mxGeometry relative="1" as="geometry">
            <mxPoint x="590" y="200" as="targetPoint" />
          </mxGeometry>
        </mxCell>
        <mxCell id="_mBnX6t3Rk1k-VsCyOZ5-17" value="Выбор программы" style="rounded=1;whiteSpace=wrap;html=1;" vertex="1" parent="1">
          <mxGeometry x="440" y="220" width="120" height="60" as="geometry" />
        </mxCell>
        <mxCell id="_mBnX6t3Rk1k-VsCyOZ5-22" style="edgeStyle=orthogonalEdgeStyle;rounded=0;orthogonalLoop=1;jettySize=auto;html=1;exitX=1;exitY=0.5;exitDx=0;exitDy=0;entryX=0;entryY=0.5;entryDx=0;entryDy=0;" edge="1" parent="1" source="_mBnX6t3Rk1k-VsCyOZ5-18" target="_mBnX6t3Rk1k-VsCyOZ5-21">
          <mxGeometry relative="1" as="geometry" />
        </mxCell>
        <mxCell id="_mBnX6t3Rk1k-VsCyOZ5-18" value="Расписание" style="rounded=1;whiteSpace=wrap;html=1;" vertex="1" parent="1">
          <mxGeometry x="440" y="110" width="120" height="60" as="geometry" />
        </mxCell>
        <mxCell id="_mBnX6t3Rk1k-VsCyOZ5-21" value="График" style="rounded=1;whiteSpace=wrap;html=1;" vertex="1" parent="1">
          <mxGeometry x="620" y="170" width="120" height="60" as="geometry" />
        </mxCell>
      </root>
    </mxGraphModel>
  </diagram>
</mxfile>
